<svg width="458" height="216" viewBox="0 0 458 216" fill="none" xmlns="http://www.w3.org/2000/svg">
<g clip-path="url(#clip0)">
<path fill-rule="evenodd" clip-rule="evenodd" d="M431 215.5C445.902 215.5 458 203.402 458 188.5V26.5C458 11.598 445.902 -0.5 431 -0.5L27 -0.5C12.098 -0.5 0 11.598 0 26.5V188.5C0 203.402 12.098 215.5 27 215.5L431 215.5Z" fill="#F2F2F2"/>
<path fill-rule="evenodd" clip-rule="evenodd" d="M419.52 126.502C420.899 126.502 422.018 125.382 422.018 124.004V92.9986C422.018 91.6179 420.899 90.498 419.52 90.498C418.14 90.498 417.02 91.6179 417.02 92.9986V124.004C417.02 125.382 418.14 126.502 419.52 126.502Z" fill="#ACACAC"/>
<path d="M8.37399 108C8.37399 119.564 17.7483 128.938 29.312 128.938C40.8757 128.938 50.25 119.564 50.25 108C50.25 96.4363 40.8757 87.062 29.312 87.062C17.7483 87.062 8.37399 96.4363 8.37399 108Z" fill="#FAFAFA"/>
<path fill-rule="evenodd" clip-rule="evenodd" d="M37.5867 112.212L37.5824 112.318L37.5758 112.422L37.5671 112.525L37.5551 112.629L37.5409 112.731L37.5245 112.832L37.5048 112.933L37.483 113.033L37.4589 113.131L37.4327 113.23L37.4032 113.327L37.3727 113.422L37.3388 113.517L37.3028 113.611L37.2656 113.704L37.2252 113.796L37.1826 113.885L37.1389 113.975L37.0919 114.062L37.0439 114.15L36.9936 114.235L36.9412 114.319L36.8866 114.401L36.8298 114.483L36.7719 114.562L36.7118 114.641L36.6495 114.718L36.5862 114.793L36.5207 114.866L36.454 114.938L36.3852 115.009L36.3142 115.078L36.2421 115.145L36.1689 115.21L36.0936 115.275L36.016 115.336L35.9385 115.396L35.8587 115.454L35.7768 115.511L35.6949 115.565L35.6108 115.618L35.5256 115.668L35.4382 115.716L35.3508 115.763L35.2612 115.807L35.1717 115.849L35.0799 115.89L34.9871 115.928L34.8931 115.963L34.7981 115.997L34.702 116.027L34.6059 116.057L34.5076 116.083L34.4093 116.107L34.3088 116.129L34.2083 116.148L34.1067 116.165L34.0051 116.179L33.9014 116.191L33.7976 116.2L33.6927 116.207L33.5879 116.211L33.4819 116.212H25.2701L25.1641 116.211L25.0582 116.207L24.9544 116.2L24.8496 116.191L24.7469 116.179L24.6442 116.165L24.5437 116.148L24.4421 116.129L24.3427 116.107L24.2444 116.083L24.1461 116.057L24.0489 116.027L23.9528 115.997L23.8588 115.963L23.7649 115.928L23.6721 115.89L23.5803 115.849L23.4896 115.807L23.4012 115.763L23.3127 115.716L23.2264 115.668L23.1412 115.618L23.0571 115.565L22.9741 115.511L22.8932 115.454L22.8135 115.396L22.7349 115.336L22.6584 115.275L22.583 115.21L22.5099 115.145L22.4378 115.078L22.3668 115.009L22.298 114.938L22.2302 114.866L22.1658 114.793L22.1013 114.718L22.0402 114.641L21.9801 114.562L21.9211 114.483L21.8654 114.401L21.8108 114.319L21.7584 114.235L21.7081 114.15L21.659 114.062L21.6131 113.975L21.5683 113.885L21.5268 113.796L21.4864 113.704L21.4482 113.611L21.4132 113.517L21.3793 113.422L21.3487 113.327L21.3192 113.23L21.293 113.131L21.269 113.033L21.2472 112.933L21.2275 112.832L21.2111 112.731L21.1969 112.629L21.1849 112.525L21.1751 112.422L21.1685 112.318L21.1652 112.212L21.1631 112.106V103.894L21.1652 103.788L21.1685 103.682L21.1751 103.578L21.1849 103.475L21.1969 103.371L21.2111 103.269L21.2275 103.168L21.2472 103.067L21.269 102.967L21.293 102.868L21.3192 102.77L21.3487 102.673L21.3793 102.578L21.4132 102.483L21.4482 102.389L21.4864 102.296L21.5268 102.204L21.5683 102.115L21.6131 102.025L21.659 101.938L21.7081 101.85L21.7584 101.765L21.8108 101.681L21.8654 101.599L21.9211 101.517L21.9801 101.437L22.0402 101.359L22.1013 101.282L22.1658 101.207L22.2302 101.134L22.298 101.062L22.3668 100.991L22.4378 100.922L22.5099 100.855L22.583 100.79L22.6584 100.725L22.7349 100.664L22.8135 100.604L22.8932 100.545L22.9741 100.489L23.0571 100.435L23.1412 100.382L23.2264 100.332L23.3127 100.284L23.4012 100.237L23.4896 100.192L23.5803 100.151L23.6721 100.11L23.7649 100.072L23.8588 100.037L23.9528 100.003L24.0489 99.9727L24.1461 99.9432L24.2444 99.917L24.3427 99.8929L24.4421 99.8711L24.5437 99.8514L24.6442 99.8351L24.7469 99.8209L24.8496 99.8088L24.9544 99.8001L25.0582 99.7925L25.1641 99.7892L25.2701 99.7881H33.4819L33.5879 99.7892L33.6927 99.7925L33.7976 99.8001L33.9014 99.8088L34.0051 99.8209L34.1067 99.8351L34.2083 99.8514L34.3088 99.8711L34.4093 99.8929L34.5076 99.917L34.6059 99.9432L34.702 99.9727L34.7981 100.003L34.8931 100.037L34.9871 100.072L35.0799 100.11L35.1717 100.151L35.2612 100.192L35.3508 100.237L35.4382 100.284L35.5256 100.332L35.6108 100.382L35.6949 100.435L35.7768 100.489L35.8587 100.545L35.9385 100.604L36.016 100.664L36.0936 100.725L36.1689 100.79L36.2421 100.855L36.3142 100.922L36.3852 100.991L36.454 101.062L36.5207 101.134L36.5862 101.207L36.6495 101.282L36.7118 101.359L36.7719 101.437L36.8298 101.517L36.8866 101.599L36.9412 101.681L36.9936 101.765L37.0439 101.85L37.0919 101.938L37.1389 102.025L37.1826 102.115L37.2252 102.204L37.2656 102.296L37.3028 102.389L37.3388 102.483L37.3727 102.578L37.4032 102.673L37.4327 102.77L37.4589 102.868L37.483 102.967L37.5048 103.067L37.5245 103.168L37.5409 103.269L37.5551 103.371L37.5671 103.475L37.5758 103.578L37.5824 103.682L37.5867 103.788L37.5878 103.894V112.106L37.5867 112.212ZM35.6993 103.906L35.6982 103.836L35.696 103.778L35.6927 103.721L35.6873 103.666L35.6807 103.61L35.6731 103.554L35.6643 103.5L35.6545 103.446L35.6425 103.393L35.6294 103.339L35.6152 103.287L35.5999 103.235L35.5835 103.183L35.5649 103.133L35.5464 103.082L35.5256 103.032L35.5038 102.983L35.4819 102.935L35.4579 102.887L35.4328 102.839L35.4065 102.793L35.3792 102.747L35.3508 102.701L35.3213 102.656L35.2907 102.613L35.2591 102.569L35.2263 102.526L35.1935 102.485L35.1586 102.445L35.1225 102.404L35.0865 102.365L35.0493 102.327L35.0111 102.289L34.9718 102.252L34.9314 102.217L34.891 102.182L34.8495 102.149L34.8069 102.117L34.7632 102.085L34.7195 102.055L34.6747 102.025L34.6288 101.997L34.5829 101.969L34.536 101.943L34.489 101.918L34.4409 101.894L34.3929 101.872L34.3437 101.85L34.2935 101.83L34.2432 101.811L34.1919 101.792L34.1406 101.776L34.0892 101.761L34.0368 101.747L33.9833 101.733L33.9298 101.721L33.8762 101.712L33.8216 101.702L33.7659 101.694L33.7102 101.689L33.6545 101.683L33.5977 101.68L33.5398 101.678L33.4699 101.677H25.2821L25.2111 101.678L25.1543 101.68L25.0975 101.683L25.0407 101.689L24.985 101.694L24.9304 101.702L24.8758 101.712L24.8212 101.721L24.7676 101.733L24.7152 101.747L24.6628 101.761L24.6103 101.776L24.559 101.792L24.5087 101.811L24.4585 101.83L24.4082 101.85L24.3591 101.872L24.311 101.894L24.263 101.918L24.2149 101.943L24.1679 101.969L24.1221 101.997L24.0773 102.025L24.0325 102.055L23.9888 102.085L23.9451 102.117L23.9025 102.149L23.861 102.182L23.8195 102.217L23.7802 102.252L23.7409 102.289L23.7026 102.327L23.6655 102.365L23.6284 102.404L23.5934 102.445L23.5585 102.485L23.5246 102.526L23.4929 102.569L23.4602 102.613L23.4296 102.656L23.4012 102.701L23.3728 102.746L23.3455 102.793L23.3193 102.839L23.2941 102.887L23.2701 102.935L23.2472 102.983L23.2264 103.032L23.2057 103.082L23.186 103.133L23.1685 103.183L23.1521 103.234L23.1368 103.287L23.1226 103.339L23.1095 103.393L23.0975 103.446L23.0877 103.5L23.0779 103.554L23.0702 103.61L23.0637 103.666L23.0593 103.721L23.056 103.778L23.0538 103.836L23.0527 103.906V112.094L23.0538 112.164L23.056 112.222L23.0593 112.278L23.0637 112.334L23.0702 112.39L23.0779 112.446L23.0877 112.5L23.0975 112.554L23.1095 112.607L23.1226 112.661L23.1368 112.713L23.1521 112.766L23.1685 112.817L23.186 112.867L23.2057 112.917L23.2264 112.968L23.2472 113.017L23.2701 113.065L23.2941 113.113L23.3193 113.161L23.3455 113.207L23.3728 113.254L23.4012 113.299L23.4307 113.343L23.4602 113.387L23.4929 113.431L23.5246 113.473L23.5585 113.515L23.5923 113.555L23.6284 113.596L23.6655 113.635L23.7026 113.673L23.7409 113.71L23.7802 113.748L23.8195 113.783L23.861 113.817L23.9025 113.851L23.9451 113.883L23.9877 113.915L24.0325 113.945L24.0773 113.975L24.1221 114.003L24.1679 114.03L24.2149 114.057L24.263 114.082L24.311 114.106L24.3591 114.128L24.4082 114.15L24.4585 114.17L24.5087 114.189L24.559 114.207L24.6103 114.224L24.6628 114.239L24.7152 114.253L24.7676 114.266L24.8212 114.278L24.8758 114.288L24.9304 114.298L24.985 114.306L25.0407 114.311L25.0975 114.317L25.1543 114.32L25.2122 114.322L25.2821 114.323H33.4699L33.5398 114.322L33.5977 114.32L33.6545 114.317L33.7102 114.311L33.7659 114.306L33.8216 114.298L33.8762 114.288L33.9298 114.278L33.9833 114.266L34.0368 114.253L34.0892 114.239L34.1406 114.224L34.1919 114.207L34.2432 114.189L34.2935 114.17L34.3437 114.15L34.3929 114.128L34.4409 114.106L34.489 114.082L34.536 114.057L34.5829 114.03L34.6288 114.003L34.6747 113.975L34.7195 113.945L34.7632 113.915L34.8069 113.883L34.8495 113.851L34.891 113.817L34.9314 113.783L34.9718 113.748L35.0111 113.71L35.0493 113.673L35.0865 113.635L35.1225 113.596L35.1586 113.555L35.1935 113.515L35.2263 113.473L35.2591 113.431L35.2907 113.387L35.3213 113.343L35.3508 113.299L35.3792 113.253L35.4065 113.207L35.4328 113.161L35.4579 113.113L35.4819 113.065L35.5038 113.017L35.5256 112.968L35.5464 112.917L35.5649 112.867L35.5835 112.817L35.5999 112.764L35.6152 112.713L35.6294 112.661L35.6425 112.607L35.6545 112.554L35.6643 112.5L35.6731 112.446L35.6807 112.39L35.6873 112.334L35.6927 112.278L35.696 112.222L35.6982 112.164L35.6993 112.094V103.906Z" fill="#BABABA"/>
<path d="M432.64 108C432.64 110.451 434.627 112.438 437.078 112.438C439.529 112.438 441.516 110.451 441.516 108C441.516 105.549 439.529 103.562 437.078 103.562C434.627 103.562 432.64 105.549 432.64 108Z" fill="#D8D8D8"/>
<path d="M435.094 108C435.094 109.087 435.975 109.968 437.062 109.968C438.149 109.968 439.03 109.087 439.03 108C439.03 106.913 438.149 106.032 437.062 106.032C435.975 106.032 435.094 106.913 435.094 108Z" fill="#EB5055"/>
<path d="M392.976 201.999V13.9983L59.976 13.9983V201.999L392.976 201.999Z" fill="#161616"/>
<path fill-rule="evenodd" clip-rule="evenodd" d="M395.747 203.15L395.097 204.119L394.122 204.773L392.976 205.002L59.9759 205.002L58.8278 204.773L57.8527 204.119L57.2033 203.15L56.9741 201.999V13.9983L57.2033 12.8518L57.8527 11.8783L58.8278 11.2293L59.9759 11L392.976 11L394.122 11.2293L395.097 11.8783L395.747 12.8518L395.976 13.9983V201.999L395.747 203.15ZM392.976 13.9983L59.9759 13.9983V201.999L392.976 201.999V13.9983Z" fill="#C7C7C7"/>
</g>
<defs>
<clipPath id="clip0">
<rect width="216" height="458" fill="white" transform="translate(458) rotate(90)"/>
</clipPath>
</defs>
</svg>
